<?xml version="1.0" encoding="UTF-8" standalone="no"?>
<!-- Generator: Adobe Illustrator 19.0.1, SVG Export Plug-In . SVG Version: 6.00 Build 0)  -->

<svg
   xmlns:dc="http://purl.org/dc/elements/1.1/"
   xmlns:cc="http://creativecommons.org/ns#"
   xmlns:rdf="http://www.w3.org/1999/02/22-rdf-syntax-ns#"
   xmlns:svg="http://www.w3.org/2000/svg"
   xmlns="http://www.w3.org/2000/svg"
   xmlns:xlink="http://www.w3.org/1999/xlink"
   xmlns:sodipodi="http://sodipodi.sourceforge.net/DTD/sodipodi-0.dtd"
   xmlns:inkscape="http://www.inkscape.org/namespaces/inkscape"
   version="1.1"
   id="Layer_1"
   x="0px"
   y="0px"
   width="803.47852"
   height="457.47852"
   viewBox="97 97.1 803.47852 457.4785"
   enable-background="new 97 97.1 806 598.9"
   xml:space="preserve"
   inkscape:version="0.91 r13725"
   sodipodi:docname="base.svg"><metadata
     id="metadata413"><rdf:RDF><cc:Work
         rdf:about=""><dc:format>image/svg+xml</dc:format><dc:type
           rdf:resource="http://purl.org/dc/dcmitype/StillImage" /><dc:title></dc:title></cc:Work></rdf:RDF></metadata><defs
     id="defs411" /><sodipodi:namedview
     pagecolor="#ffffff"
     bordercolor="#666666"
     borderopacity="1"
     objecttolerance="10"
     gridtolerance="10"
     guidetolerance="10"
     inkscape:pageopacity="0"
     inkscape:pageshadow="2"
     inkscape:window-width="1858"
     inkscape:window-height="1057"
     id="namedview409"
     showgrid="false"
     inkscape:snap-bbox="true"
     inkscape:bbox-paths="true"
     inkscape:bbox-nodes="true"
     inkscape:snap-bbox-edge-midpoints="true"
     inkscape:snap-bbox-midpoints="true"
     inkscape:object-paths="true"
     inkscape:snap-intersection-paths="true"
     inkscape:object-nodes="true"
     inkscape:snap-smooth-nodes="true"
     inkscape:snap-midpoints="true"
     fit-margin-top="0"
     fit-margin-left="0"
     fit-margin-right="0"
     fit-margin-bottom="0"
     inkscape:zoom="1"
     inkscape:cx="377.60089"
     inkscape:cy="206.63857"
     inkscape:window-x="54"
     inkscape:window-y="1072"
     inkscape:window-maximized="1"
     inkscape:current-layer="Layer_1" /><pattern
     x="97"
     y="696"
     width="40"
     height="103"
     patternUnits="userSpaceOnUse"
     id="SVGID_1_"
     viewBox="0 -231.7 40 103"
     overflow="visible"><g
       id="g4"><polygon
         fill="none"
         points="0,-128.7 40,-128.7 40,-231.7 0,-231.7   "
         id="polygon6" /><g
         id="g8"><polygon
           fill="none"
           points="0,-128.7 40,-128.7 40,-231.7 0,-231.7    "
           id="polygon10" /><polygon
           points="34.5,-360.5 37.5,-360.5 37.5,-206 34.5,-206    "
           id="polygon12" /><polygon
           points="26.5,-360.5 29.5,-360.5 29.5,-206 26.5,-206    "
           id="polygon14" /><polygon
           points="18.5,-360.5 21.5,-360.5 21.5,-206 18.5,-206    "
           id="polygon16" /><polygon
           points="10.5,-360.5 13.5,-360.5 13.5,-206 10.5,-206    "
           id="polygon18" /><polygon
           points="2.5,-360.5 5.5,-360.5 5.5,-206 2.5,-206    "
           id="polygon20" /><polygon
           points="34.5,-257.5 37.5,-257.5 37.5,-103 34.5,-103    "
           id="polygon22" /><polygon
           points="26.5,-257.5 29.5,-257.5 29.5,-103 26.5,-103    "
           id="polygon24" /><polygon
           points="18.5,-257.5 21.5,-257.5 21.5,-103 18.5,-103    "
           id="polygon26" /><polygon
           points="10.5,-257.5 13.5,-257.5 13.5,-103 10.5,-103    "
           id="polygon28" /><polygon
           points="2.5,-257.5 5.5,-257.5 5.5,-103 2.5,-103    "
           id="polygon30" /><polygon
           points="34.5,-154.5 37.5,-154.5 37.5,0 34.5,0    "
           id="polygon32" /><polygon
           points="26.5,-154.5 29.5,-154.5 29.5,0 26.5,0    "
           id="polygon34" /><polygon
           points="18.5,-154.5 21.5,-154.5 21.5,0 18.5,0    "
           id="polygon36" /><polygon
           points="10.5,-154.5 13.5,-154.5 13.5,0 10.5,0    "
           id="polygon38" /><polygon
           points="2.5,-154.5 5.5,-154.5 5.5,0 2.5,0    "
           id="polygon40" /></g></g></pattern><pattern
     x="97"
     y="696"
     width="40"
     height="103"
     patternUnits="userSpaceOnUse"
     id="SVGID_2_"
     viewBox="0 -231.7 40 103"
     overflow="visible"><g
       id="g43"><polygon
         fill="none"
         points="0,-128.7 40,-128.7 40,-231.7 0,-231.7   "
         id="polygon45" /><g
         id="g47"><polygon
           fill="none"
           points="0,-128.7 40,-128.7 40,-231.7 0,-231.7    "
           id="polygon49" /><polygon
           points="34.5,-360.5 37.5,-360.5 37.5,-206 34.5,-206    "
           id="polygon51" /><polygon
           points="26.5,-360.5 29.5,-360.5 29.5,-206 26.5,-206    "
           id="polygon53" /><polygon
           points="18.5,-360.5 21.5,-360.5 21.5,-206 18.5,-206    "
           id="polygon55" /><polygon
           points="10.5,-360.5 13.5,-360.5 13.5,-206 10.5,-206    "
           id="polygon57" /><polygon
           points="2.5,-360.5 5.5,-360.5 5.5,-206 2.5,-206    "
           id="polygon59" /><polygon
           points="34.5,-257.5 37.5,-257.5 37.5,-103 34.5,-103    "
           id="polygon61" /><polygon
           points="26.5,-257.5 29.5,-257.5 29.5,-103 26.5,-103    "
           id="polygon63" /><polygon
           points="18.5,-257.5 21.5,-257.5 21.5,-103 18.5,-103    "
           id="polygon65" /><polygon
           points="10.5,-257.5 13.5,-257.5 13.5,-103 10.5,-103    "
           id="polygon67" /><polygon
           points="2.5,-257.5 5.5,-257.5 5.5,-103 2.5,-103    "
           id="polygon69" /><polygon
           points="34.5,-154.5 37.5,-154.5 37.5,0 34.5,0    "
           id="polygon71" /><polygon
           points="26.5,-154.5 29.5,-154.5 29.5,0 26.5,0    "
           id="polygon73" /><polygon
           points="18.5,-154.5 21.5,-154.5 21.5,0 18.5,0    "
           id="polygon75" /><polygon
           points="10.5,-154.5 13.5,-154.5 13.5,0 10.5,0    "
           id="polygon77" /><polygon
           points="2.5,-154.5 5.5,-154.5 5.5,0 2.5,0    "
           id="polygon79" /></g></g></pattern><pattern
     x="97"
     y="696"
     width="71"
     height="71"
     patternUnits="userSpaceOnUse"
     id="SVGID_3_"
     viewBox="0 -71 71 71"
     overflow="visible"><g
       id="g82"><polygon
         fill="none"
         points="0,0 71,0 71,-71 0,-71   "
         id="polygon84" /><g
         id="g86"><polygon
           fill="none"
           points="0,0 71,0 71,-71 0,-71    "
           id="polygon88" /><path
           fill="#B3B3B3"
           d="M41.8-35.5c0-3.5-2.8-6.3-6.3-6.3s-6.3,2.8-6.3,6.3s2.8,6.3,6.3,6.3S41.8-32,41.8-35.5z"
           id="path90" /></g></g></pattern><g
     id="g5372"
     transform="translate(-1.2480469,-1.5258789e-6)"
     inkscape:export-xdpi="90"
     inkscape:export-ydpi="90"><path
       sodipodi:nodetypes="ccsccsssc"
       d="m 205.9,207 c 0,-0.8 0.4,-1.5 1.1,-1.9 4.5,-2.9 23.4,-13.6 51.5,-13.6 26.9,0 41.1,5.9 45.1,8 0.8,0.4 1.2,1.2 1.2,2 0,0 -1.34679,1.47343 -3.90051,1.07454 -5.49145,-0.85777 -17.71005,-2.11516 -43.44324,-2.11516 -28.78178,0 -43.19762,5.70279 -48.62912,7.50638 C 207.14414,208.52462 205.9,207 205.9,207 Z"
       id="path337"
       inkscape:connector-curvature="0"
       style="fill:#0a0a0a" /><path
       sodipodi:nodetypes="cccscccscsc"
       d="m 205.9,213.9 0,0 0,-6.9 c 0,0 13.7,-8.4 51.4,-8.4 37.8,0 47.5,2.9 47.5,2.9 l 0,11 0,0 c -0.99831,0.83394 -1.57528,0.92494 -3.48757,0.87575 -8.1467,-0.20958 -22.57409,-2.5695 -40.54993,-2.5695 -25.91073,0.0909 -43.053,2.62524 -52.56809,4.17375 -0.95084,0.15475 -1.77822,-0.23892 -2.29441,-1.08 z"
       id="path339"
       inkscape:connector-curvature="0"
       style="fill:#121212" /><path
       sodipodi:nodetypes="ccsccsssc"
       d="m 794.1,207 c 0,-0.8 -0.4,-1.5 -1.1,-1.9 -4.5,-2.9 -23.4,-13.6 -51.5,-13.6 -26.9,0 -41.1,5.9 -45.1,8 -0.8,0.4 -1.2,1.2 -1.2,2 0,0 0.60498,1.36221 1.71821,1.26881 4.01244,-0.33668 16.31393,-2.53363 45.82598,-2.53363 29.86952,0 42.7179,4.76471 47.579,6.95515 C 791.59756,207.76456 794.1,207 794.1,207 Z"
       id="path329"
       inkscape:connector-curvature="0"
       style="fill:#0a0a0a" /><path
       d="m 794.1,213.9 c 0,-2.3 0,-4.6 0,-6.9 0,0 -13.7,-8.4 -51.4,-8.4 -37.8,0 -47.5,2.9 -47.5,2.9 l 0,11 0.4375,1.4375 c 7.7,-1.3 21.1375,-2.5375 44.0375,-2.5375 28.5,0.1 45.525,0.9 54.425,2.5 z"
       id="path331"
       inkscape:connector-curvature="0"
       style="fill:#121212"
       sodipodi:nodetypes="ccsccccc" /><path
       sodipodi:nodetypes="scscsccccccccccsccccccccsccccs"
       inkscape:connector-curvature="0"
       id="path98"
       transform="translate(97,97.099998)"
       d="m 163.69922,112.80078 c -44.8,0 -62.29883,5.69922 -62.29883,5.69922 0,0 -4.101171,5.29961 -4.701171,8.59961 -0.6,3.3 -10.09961,16.30078 -10.09961,16.30078 0,0 -21,29.99922 -33,65.69922 -4,11.9 -7.7,37.20039 -17,64.90039 -14.3,42.1 -29.0999996,129.09961 -31.9999996,144.59961 -1.6175512,8.72725 -2.669114,23.65365 -3.3515625,38.87891 l 803.4785131,0 c -0.69709,-15.22525 -1.77061,-30.15166 -3.42578,-38.87891 -2.9,-15.5 -17.7,-102.49961 -32,-144.59961 -9.4,-27.7 -13.1,-53.00039 -17,-64.90039 -12,-35.7 -33,-65.69922 -33,-65.69922 0,0 -9.50156,-13.10078 -10.10156,-16.30078 -0.6,-3.3 -4.69922,-8.59961 -4.69922,-8.59961 0,0 -17.40078,-5.69922 -62.30078,-5.69922 -44.9,0 -53.69922,5 -53.69922,5 0,0 -2.40039,2.89883 -5.90039,4.79883 -3.5,1.8 -11.69922,1.70117 -11.69922,1.70117 l -33.40039,0 c 0,0 -0.60039,-0.10117 -0.90039,0.29883 -0.4,0.4 -0.59961,2 -0.59961,2 l -133,0 -133.09961,0 c 0,0 -0.29961,-1.7 -0.59961,-2 -0.4,-0.4 -0.90039,-0.29883 -0.90039,-0.29883 l -33.40039,0 c 0,0 -8.19922,0.19883 -11.69922,-1.70117 -3.5,-1.8 -5.90039,-4.79883 -5.90039,-4.79883 0,0 -8.80117,-5 -53.70117,-5 z"
       style="fill:#0d0e13" /><path
       d="m 448.2,457.1 c 0,-42.2 -34.3,-76.5 -76.5,-76.5 -42.2,0 -76.5,34.3 -76.5,76.5 0,0.7 0,1.3 0.1,2 0,0.7 -0.1,1.3 -0.1,2 0,42.2 34.3,76.5 76.5,76.5 42.2,0 76.5,-34.3 76.5,-76.5 0,-0.7 0,-1.3 -0.1,-2 0,-0.7 0.1,-1.4 0.1,-2 z"
       id="path104"
       inkscape:connector-curvature="0"
       style="fill:#13161f" /><circle
       cx="371.70001"
       cy="453.10001"
       r="73"
       id="circle106"
       style="fill:#0f1015" /><circle
       cx="371.70001"
       cy="453.10001"
       r="51.5"
       id="circle108" /><path
       d="m 704.8,457.1 c 0,-42.2 -34.3,-76.5 -76.5,-76.5 -42.2,0 -76.5,34.3 -76.5,76.5 0,0.7 0,1.3 0.1,2 0,0.7 -0.1,1.3 -0.1,2 0,42.2 34.3,76.5 76.5,76.5 42.2,0 76.5,-34.3 76.5,-76.5 0,-0.7 0,-1.3 -0.1,-2 0.1,-0.7 0.1,-1.4 0.1,-2 z"
       id="path110"
       inkscape:connector-curvature="0"
       style="fill:#13161f" /><circle
       cx="628.29999"
       cy="453.10001"
       r="73"
       id="circle112"
       style="fill:#0f1015" /><circle
       cx="628.29999"
       cy="453.10001"
       r="51.5"
       id="circle114" /><path
       d="m 631.8,225.1 c -0.4,-3.2 -3.3,-5.6 -6.5,-5.6 l 0,0 -125.3,0 0,0 -125.3,0 0,0 c -3.2,0 -6.1,2.3 -6.5,5.6 -0.1,0.7 -0.1,1.4 -0.1,2.1 l 0,127.4 c 0,8.9 7.2,16.1 16.1,16.1 l 115.8,0 0,0 115.8,0 c 8.9,0 16.1,-7.2 16.1,-16.1 l 0,-127.4 c 0.1,-0.7 0,-1.4 -0.1,-2.1 z"
       id="path116"
       inkscape:connector-curvature="0"
       style="fill:#121212" /><circle
       cx="749.29999"
       cy="341.89999"
       r="94.300003"
       id="circle118"
       style="fill:#080808" /><g
       id="g120"><circle
         cx="250.7"
         cy="341.89999"
         r="94.300003"
         id="circle122"
         style="fill:#080808" /><path
         d="m 327.4,351.2 9.5,-8.9 c 0.5,-0.5 0.5,-1.2 0,-1.7 l -9.5,-8.9 c -0.7,-0.7 -1.9,-0.2 -1.9,0.8 l 0,8.9 0,8.9 c -0.1,1 1.1,1.5 1.9,0.9 z"
         id="path124"
         inkscape:connector-curvature="0"
         style="fill:#1f1f1f" /><path
         d="m 242,266.9 8.9,0 8.9,0 c 1,0 1.5,-1.2 0.8,-1.9 l -8.9,-9.5 c -0.5,-0.5 -1.2,-0.5 -1.7,0 l -8.9,9.5 c -0.6,0.7 -0.1,1.9 0.9,1.9 z"
         id="path126"
         inkscape:connector-curvature="0"
         style="fill:#1f1f1f" /><path
         d="m 174.5,331.7 -9.5,8.9 c -0.5,0.5 -0.5,1.2 0,1.7 l 9.5,8.9 c 0.7,0.7 1.9,0.2 1.9,-0.8 l 0,-8.9 0,-8.9 c 0,-1.1 -1.2,-1.6 -1.9,-0.9 z"
         id="path128"
         inkscape:connector-curvature="0"
         style="fill:#1f1f1f" /><path
         d="m 259.8,415.9 -8.9,0 -8.9,0 c -1,0 -1.5,1.2 -0.8,1.9 l 8.9,9.5 c 0.5,0.5 1.2,0.5 1.7,0 l 8.9,-9.5 c 0.6,-0.7 0.1,-1.9 -0.9,-1.9 z"
         id="path130"
         inkscape:connector-curvature="0"
         style="fill:#1f1f1f" /></g><g
       id="g152"><g
         id="g154"><path
           d="m 337.5,240.6 c 6.9,0 12.5,5.6 12.5,12.5 l 0,18.3 c 0,6.9 -5.6,12.5 -12.5,12.5 -6.9,0 -12.5,-5.6 -12.5,-12.5 l 0,-18.3 c 0,-6.9 5.6,-12.5 12.5,-12.5 m 0,-1.7 c -7.8,0 -14.2,6.4 -14.2,14.2 l 0,18.3 c 0,7.8 6.4,14.2 14.2,14.2 7.8,0 14.2,-6.4 14.2,-14.2 l 0,-18.3 c 0,-7.9 -6.4,-14.2 -14.2,-14.2 l 0,0 z"
           id="path156"
           inkscape:connector-curvature="0" /><path
           d="m 337.5,240.6 c -6.9,0 -12.5,5.6 -12.5,12.5 l 0,18.3 c 0,6.9 5.6,12.5 12.5,12.5 6.9,0 12.5,-5.6 12.5,-12.5 l 0,-18.3 c 0,-6.9 -5.6,-12.5 -12.5,-12.5 z"
           id="path158"
           inkscape:connector-curvature="0"
           style="fill:#10111a" /></g></g><g
       id="g160"><g
         id="g162"><path
           d="m 662.5,240.6 c 6.9,0 12.5,5.6 12.5,12.5 l 0,18.3 c 0,6.9 -5.6,12.5 -12.5,12.5 l 0,0 c -6.9,0 -12.5,-5.6 -12.5,-12.5 l 0,-18.3 c 0,-6.9 5.6,-12.5 12.5,-12.5 l 0,0 m 0,-1.7 c -7.8,0 -14.2,6.4 -14.2,14.2 l 0,18.3 c 0,7.8 6.4,14.2 14.2,14.2 7.8,0 14.2,-6.4 14.2,-14.2 l 0,-18.3 c 0,-7.9 -6.4,-14.2 -14.2,-14.2 l 0,0 z"
           id="path164"
           inkscape:connector-curvature="0" /><path
           d="m 662.5,240.6 c -6.9,0 -12.5,5.6 -12.5,12.5 l 0,18.3 c 0,6.9 5.6,12.5 12.5,12.5 6.9,0 12.5,-5.6 12.5,-12.5 l 0,-18.3 c 0,-6.9 -5.6,-12.5 -12.5,-12.5 z"
           id="path166"
           inkscape:connector-curvature="0"
           style="fill:#10111a" /></g></g><g
       id="g168"><g
         id="g170"><path
           d="m 238.2,344.3 c 1.4,-2 1.2,-2.9 1.2,-2.9 0,0 0.2,-0.9 -1.2,-2.9 -1.4,-2 -15,-13.6 -15.7,-14 -0.7,-0.4 -28.5,-2.2 -31.4,1.3 -2.9,3.5 -2.6,15.6 -2.6,15.6 0,0 -0.3,12.1 2.6,15.6 2.9,3.5 30.7,1.7 31.4,1.3 0.7,-0.4 14.3,-12 15.7,-14 z"
           id="path172"
           inkscape:connector-curvature="0"
           style="fill:#1a1a1a" /><path
           enable-background="new    "
           d="m 238.2,344.3 c 1.4,-2 1.2,-2.9 1.2,-2.9 0,0 0.2,-0.9 -1.2,-2.9 -0.9,-1.3 -6.9,-6.6 -11.2,-10.3 -2.1,3.9 -3.4,8.4 -3.4,13.2 0,4.8 1.2,9.3 3.4,13.2 4.3,-3.7 10.3,-9 11.2,-10.3 z"
           id="path174"
           inkscape:connector-curvature="0"
           style="opacity:0.25" /></g><g
         id="g176"><path
           d="m 248,328.7 c 2,1.4 2.9,1.2 2.9,1.2 0,0 0.9,0.2 2.9,-1.2 2,-1.4 13.6,-15 14,-15.7 0.4,-0.7 2.2,-28.5 -1.3,-31.4 -3.5,-2.9 -15.6,-2.6 -15.6,-2.6 0,0 -12.1,-0.3 -15.6,2.6 -3.5,2.9 -1.7,30.7 -1.3,31.4 0.5,0.7 12,14.3 14,15.7 z"
           id="path178"
           inkscape:connector-curvature="0"
           style="fill:#1a1a1a" /><path
           enable-background="new    "
           d="m 248,328.7 c 2,1.4 2.9,1.2 2.9,1.2 0,0 0.9,0.2 2.9,-1.2 1.3,-0.9 6.6,-6.9 10.3,-11.2 -3.9,-2.1 -8.4,-3.4 -13.2,-3.4 -4.8,0 -9.3,1.2 -13.2,3.4 3.8,4.3 9,10.3 10.3,11.2 z"
           id="path180"
           inkscape:connector-curvature="0"
           style="opacity:0.25" /></g><g
         id="g182"><path
           d="m 310.7,325.9 c -2.9,-3.5 -30.7,-1.7 -31.4,-1.3 -0.7,0.4 -14.3,12 -15.7,14 -1.4,2 -1.2,2.9 -1.2,2.9 0,0 -0.2,0.9 1.2,2.9 1.4,2 15,13.6 15.7,14 0.7,0.4 28.5,2.2 31.4,-1.3 2.9,-3.5 2.6,-15.6 2.6,-15.6 0,0 0.3,-12.1 -2.6,-15.6 z"
           id="path184"
           inkscape:connector-curvature="0"
           style="fill:#1a1a1a" /><path
           enable-background="new    "
           d="m 274.9,328.3 c -4.3,3.7 -10.3,9 -11.2,10.3 -1.4,2 -1.2,2.9 -1.2,2.9 0,0 -0.2,0.9 1.2,2.9 0.9,1.3 6.9,6.6 11.2,10.3 2.1,-3.9 3.4,-8.4 3.4,-13.2 0,-4.8 -1.3,-9.3 -3.4,-13.2 z"
           id="path186"
           inkscape:connector-curvature="0"
           style="opacity:0.25" /></g><g
         id="g188"><path
           d="m 253.8,354.2 c -2,-1.4 -2.9,-1.2 -2.9,-1.2 0,0 -0.9,-0.2 -2.9,1.2 -2,1.4 -13.6,15 -14,15.7 -0.4,0.7 -2.2,28.5 1.3,31.4 3.5,2.9 15.6,2.6 15.6,2.6 0,0 12.1,0.3 15.6,-2.6 3.5,-2.9 1.7,-30.7 1.3,-31.4 -0.4,-0.8 -12,-14.3 -14,-15.7 z"
           id="path190"
           inkscape:connector-curvature="0"
           style="fill:#1a1a1a" /><path
           enable-background="new    "
           d="m 253.8,354.2 c -2,-1.4 -2.9,-1.2 -2.9,-1.2 0,0 -0.9,-0.2 -2.9,1.2 -1.3,0.9 -6.6,6.9 -10.3,11.2 3.9,2.1 8.4,3.4 13.2,3.4 4.8,0 9.3,-1.2 13.2,-3.4 -3.7,-4.3 -9,-10.3 -10.3,-11.2 z"
           id="path192"
           inkscape:connector-curvature="0"
           style="opacity:0.25" /></g></g><g
       id="g194"><g
         id="g196"><circle
           id="circle198"
           r="4.0999999"
           cy="413.5"
           cx="500" /><circle
           id="circle200"
           r="4.0999999"
           cy="392.60001"
           cx="500" /><circle
           id="circle202"
           r="4.0999999"
           cy="402.79999"
           cx="493.10001" /><circle
           id="circle204"
           r="4.0999999"
           cy="402.79999"
           cx="478.39999" /><circle
           id="circle206"
           r="4.0999999"
           cy="413.5"
           cx="485.70001" /><circle
           id="circle208"
           r="4.0999999"
           cy="392.60001"
           cx="485.70001" /><circle
           id="circle210"
           r="4.0999999"
           cy="392.60001"
           cx="471.39999" /></g><g
         id="g212"><circle
           id="circle214"
           r="4.0999999"
           cy="402.79999"
           cx="506.89999" /><circle
           id="circle216"
           r="4.0999999"
           cy="402.79999"
           cx="521.59998" /><circle
           id="circle218"
           r="4.0999999"
           cy="413.5"
           cx="514.20001" /><circle
           id="circle220"
           r="4.0999999"
           cy="392.60001"
           cx="514.20001" /><circle
           id="circle222"
           r="4.0999999"
           cy="392.60001"
           cx="528.59998" /></g></g><g
       id="g224"
       style="opacity:0.12000002"><path
         id="path226"
         d="m 500,416.6 c -2.1,0 -3.8,-1.6 -4.1,-3.6 0,0.2 -0.1,0.3 -0.1,0.5 0,2.3 1.8,4.1 4.1,4.1 2.3,0 4.1,-1.8 4.1,-4.1 0,-0.2 0,-0.3 -0.1,-0.5 -0.1,2 -1.8,3.6 -3.9,3.6 z"
         inkscape:connector-curvature="0"
         style="fill:#ffffff" /><path
         id="path228"
         d="m 500,396.7 c 2.3,0 4.1,-1.8 4.1,-4.1 0,-0.2 0,-0.3 -0.1,-0.5 -0.2,2 -2,3.6 -4.1,3.6 -2.1,0 -3.8,-1.6 -4.1,-3.6 0,0.2 -0.1,0.3 -0.1,0.5 0.2,2.2 2,4.1 4.3,4.1 z"
         inkscape:connector-curvature="0"
         style="fill:#ffffff" /><path
         id="path230"
         d="m 497.2,402.8 c 0,-0.2 0,-0.3 -0.1,-0.5 -0.2,2 -2,3.6 -4.1,3.6 -2.1,0 -3.8,-1.6 -4.1,-3.6 0,0.2 -0.1,0.3 -0.1,0.5 0,2.3 1.8,4.1 4.1,4.1 2.4,0 4.3,-1.8 4.3,-4.1 z"
         inkscape:connector-curvature="0"
         style="fill:#ffffff" /><path
         id="path232"
         d="m 482.4,402.3 c -0.2,2 -2,3.6 -4.1,3.6 -2.1,0 -3.8,-1.6 -4.1,-3.6 0,0.2 -0.1,0.3 -0.1,0.5 0,2.3 1.8,4.1 4.1,4.1 2.3,0 4.1,-1.8 4.1,-4.1 0.2,-0.2 0.2,-0.3 0.1,-0.5 z"
         inkscape:connector-curvature="0"
         style="fill:#ffffff" /><path
         id="path234"
         d="m 485.8,416.6 c -2.1,0 -3.8,-1.6 -4.1,-3.6 0,0.2 -0.1,0.3 -0.1,0.5 0,2.3 1.8,4.1 4.1,4.1 2.3,0 4.1,-1.8 4.1,-4.1 0,-0.2 0,-0.3 -0.1,-0.5 -0.1,2 -1.8,3.6 -3.9,3.6 z"
         inkscape:connector-curvature="0"
         style="fill:#ffffff" /><path
         id="path236"
         d="m 485.8,396.7 c 2.3,0 4.1,-1.8 4.1,-4.1 0,-0.2 0,-0.3 -0.1,-0.5 -0.2,2 -2,3.6 -4.1,3.6 -2.1,0 -3.8,-1.6 -4.1,-3.6 0,0.2 -0.1,0.3 -0.1,0.5 0.1,2.2 2,4.1 4.3,4.1 z"
         inkscape:connector-curvature="0"
         style="fill:#ffffff" /><path
         id="path238"
         d="m 475.6,392.6 c 0,-0.2 0,-0.3 -0.1,-0.5 -0.2,2 -2,3.6 -4.1,3.6 -2.1,0 -3.8,-1.6 -4.1,-3.6 0,0.2 -0.1,0.3 -0.1,0.5 0,2.3 1.8,4.1 4.1,4.1 2.4,0 4.3,-1.9 4.3,-4.1 z"
         inkscape:connector-curvature="0"
         style="fill:#ffffff" /><path
         id="path240"
         d="m 511,402.3 c -0.2,2 -2,3.6 -4.1,3.6 -2.1,0 -3.8,-1.6 -4.1,-3.6 0,0.2 -0.1,0.3 -0.1,0.5 0,2.3 1.8,4.1 4.1,4.1 2.3,0 4.1,-1.8 4.1,-4.1 0.2,-0.2 0.1,-0.3 0.1,-0.5 z"
         inkscape:connector-curvature="0"
         style="fill:#ffffff" /><path
         id="path242"
         d="m 521.6,405.9 c -2.1,0 -3.8,-1.6 -4.1,-3.6 0,0.2 -0.1,0.3 -0.1,0.5 0,2.3 1.8,4.1 4.1,4.1 2.3,0 4.1,-1.8 4.1,-4.1 0,-0.2 0,-0.3 -0.1,-0.5 0,2.1 -1.8,3.6 -3.9,3.6 z"
         inkscape:connector-curvature="0"
         style="fill:#ffffff" /><path
         id="path244"
         d="m 514.3,416.6 c -2.1,0 -3.8,-1.6 -4.1,-3.6 0,0.2 -0.1,0.3 -0.1,0.5 0,2.3 1.8,4.1 4.1,4.1 2.3,0 4.1,-1.8 4.1,-4.1 0,-0.2 0,-0.3 -0.1,-0.5 -0.1,2 -1.8,3.6 -3.9,3.6 z"
         inkscape:connector-curvature="0"
         style="fill:#ffffff" /><path
         id="path246"
         d="m 514.3,396.7 c 2.3,0 4.1,-1.8 4.1,-4.1 0,-0.2 0,-0.3 -0.1,-0.5 -0.2,2 -2,3.6 -4.1,3.6 -2.1,0 -3.8,-1.6 -4.1,-3.6 0,0.2 -0.1,0.3 -0.1,0.5 0.1,2.2 2,4.1 4.3,4.1 z"
         inkscape:connector-curvature="0"
         style="fill:#ffffff" /><path
         id="path248"
         d="m 528.6,395.7 c -2.1,0 -3.8,-1.6 -4.1,-3.6 0,0.2 -0.1,0.3 -0.1,0.5 0,2.3 1.8,4.1 4.1,4.1 2.3,0 4.1,-1.8 4.1,-4.1 0,-0.2 0,-0.3 -0.1,-0.5 -0.1,2 -1.8,3.6 -3.9,3.6 z"
         inkscape:connector-curvature="0"
         style="fill:#ffffff" /></g><g
       id="g256"><g
         id="g258"><path
           id="path260"
           d="m 627.4,221.4 c 0,-1 -0.8,-1.9 -1.9,-1.9 l -125.5,0 0,0 -125.6,0 c -1,0 -1.9,0.8 -1.9,1.9 l 0,6 0,123.2 c 0,8.6 7,15.6 15.6,15.6 l 111.9,0 0,0 111.9,0 c 8.6,0 15.6,-7 15.6,-15.6 l 0,-123.1 -0.1,-6.1 z"
           inkscape:connector-curvature="0"
           style="fill:#080808" /><g
           id="g262"
           style="opacity:0.12000002"><pattern
             opacity="0.12"
             patternTransform="matrix(0.1017 0 0 -0.1017 -13979.8896 -2289.7598)"
             xlink:href="#SVGID_3_"
             id="SVGID_6_" /><path
             id="path265"
             d="m 372.5,350.6 c 0,8.6 7,15.6 15.6,15.6 l 111.9,0 0,0 111.9,0 c 8.6,0 15.6,-7 15.6,-15.6 l 0,-106.5 -255,0 0,106.5 z"
             inkscape:connector-curvature="0"
             style="fill:url(#SVGID_6_)" /></g></g></g><g
       id="g267"><g
         id="g269"><g
           id="g271"><g
             id="g273"><path
               id="path275"
               d="m 806.9,368.1 c -14.5,0 -26.3,-11.8 -26.3,-26.3 0,-14.5 11.8,-26.3 26.3,-26.3 14.5,0 26.3,11.8 26.3,26.3 0,14.5 -11.8,26.3 -26.3,26.3 z"
               inkscape:connector-curvature="0"
               style="fill:#1a1a1a" /><path
               id="path277"
               d="m 806.9,316.6 c 13.9,0 25.3,11.3 25.3,25.3 0,14 -11.3,25.2 -25.3,25.2 -14,0 -25.3,-11.3 -25.3,-25.3 0,-14 11.4,-25.2 25.3,-25.2 m 0,-2 c -15,0 -27.3,12.2 -27.3,27.3 0,15.1 12.2,27.3 27.3,27.3 15.1,0 27.3,-12.2 27.3,-27.3 0,-15.1 -12.3,-27.3 -27.3,-27.3 l 0,0 z"
               inkscape:connector-curvature="0"
               style="fill:#0f0f0f" /></g><path
             id="path279"
             d="m 806.9,323 c -10.4,0 -18.9,8.5 -18.9,18.9 0,10.4 8.5,18.9 18.9,18.9 10.4,0 18.9,-8.5 18.9,-18.9 0,-10.4 -8.4,-18.9 -18.9,-18.9 z m 0,34.9 c -8.9,0 -16,-7.2 -16,-16 0,-8.9 7.2,-16 16,-16 8.8,0 16,7.2 16,16 0.1,8.9 -7.1,16 -16,16 z"
             inkscape:connector-curvature="0"
             style="fill:#ff6666" /></g><g
           id="g281"><g
             id="g283"><path
               id="path285"
               d="m 749.3,425.7 c -14.5,0 -26.3,-11.8 -26.3,-26.3 0,-14.5 11.8,-26.3 26.3,-26.3 14.5,0 26.3,11.8 26.3,26.3 0,14.5 -11.8,26.3 -26.3,26.3 z"
               inkscape:connector-curvature="0"
               style="fill:#1a1a1a" /><path
               id="path287"
               d="m 749.3,374.2 c 13.9,0 25.3,11.3 25.3,25.3 0,14 -11.3,25.3 -25.3,25.3 -14,0 -25.3,-11.3 -25.3,-25.3 0,-14 11.4,-25.3 25.3,-25.3 m 0,-2 c -15,0 -27.3,12.2 -27.3,27.3 0,15 12.2,27.3 27.3,27.3 15.1,0 27.3,-12.2 27.3,-27.3 0,-15 -12.2,-27.3 -27.3,-27.3 l 0,0 z"
               inkscape:connector-curvature="0"
               style="fill:#0f0f0f" /></g><polygon
             id="polygon289"
             points="737,385.1 735,387.1 747.3,399.5 735,411.8 737,413.8 749.3,401.5 761.7,413.8 763.7,411.8 751.3,399.5 763.7,387.1 761.7,385.1 749.3,397.5 "
             style="fill:#7cb2e8" /></g><g
           id="g291"><g
             id="g293"><path
               id="path295"
               d="m 691.8,368.1 c -14.5,0 -26.3,-11.8 -26.3,-26.3 0,-14.5 11.8,-26.3 26.3,-26.3 14.5,0 26.3,11.8 26.3,26.3 0,14.5 -11.9,26.3 -26.3,26.3 z"
               inkscape:connector-curvature="0"
               style="fill:#1a1a1a" /><path
               id="path297"
               d="m 691.7,316.6 c 13.9,0 25.3,11.3 25.3,25.3 0,14 -11.3,25.2 -25.3,25.2 -14,0 -25.3,-11.3 -25.3,-25.3 0,-14 11.4,-25.2 25.3,-25.2 m 0,-2 c -15,0 -27.3,12.2 -27.3,27.3 0,15.1 12.2,27.3 27.3,27.3 15.1,0 27.3,-12.2 27.3,-27.3 0,-15.1 -12.2,-27.3 -27.3,-27.3 l 0,0 z"
               inkscape:connector-curvature="0"
               style="fill:#0f0f0f" /></g><path
             id="path299"
             d="m 703.3,327.5 -23,0 -2.8,0 0,2.8 0,23 0,2.8 2.8,0 23,0 2.8,0 0,-2.8 0,-23 0,-2.8 -2.8,0 0,0 z m 0,25.9 -23,0 0,-23 23,0 0,23 z"
             inkscape:connector-curvature="0"
             style="fill:#ff69f8" /></g><g
           id="g301"><g
             id="g303"><path
               id="path305"
               d="m 749.3,310.6 c -14.5,0 -26.3,-11.8 -26.3,-26.3 0,-14.5 11.8,-26.3 26.3,-26.3 14.5,0 26.3,11.8 26.3,26.3 0,14.5 -11.8,26.3 -26.3,26.3 z"
               inkscape:connector-curvature="0"
               style="fill:#1a1a1a" /><path
               id="path307"
               d="m 749.3,259.1 c 13.9,0 25.3,11.3 25.3,25.3 0,14 -11.3,25.3 -25.3,25.3 -14,0 -25.3,-11.3 -25.3,-25.3 0,-14 11.4,-25.3 25.3,-25.3 m 0,-2 c -15,0 -27.3,12.2 -27.3,27.3 0,15.1 12.2,27.3 27.3,27.3 15.1,0 27.3,-12.2 27.3,-27.3 0,-15.1 -12.2,-27.3 -27.3,-27.3 l 0,0 z"
               inkscape:connector-curvature="0"
               style="fill:#0f0f0f" /></g><path
             id="path309"
             d="m 765.3,292.3 -16,-27.6 -16,27.6 -1.6,2.8 3.3,0 14.3,0 14.3,0 3.3,0 -1.6,-2.8 z m -16,0 -12.7,0 12.7,-21.9 12.7,21.9 -12.7,0 z"
             inkscape:connector-curvature="0"
             style="fill:#40e2a0" /></g></g></g><g
       id="g311"><circle
         id="circle313"
         r="20.200001"
         cy="459.10001"
         cx="500"
         stroke-miterlimit="10"
         style="fill:#050505;stroke:#000000;stroke-width:2;stroke-miterlimit:10" /><g
         id="g315"><path
           id="path317"
           d="m 501.1,465.7 0,-2.8 0,-3.5 0,-6.5 c 0,-0.5 0.1,-0.8 0.3,-1 0.1,-0.2 0.4,-0.3 0.7,-0.2 0.6,0.2 0.9,0.7 0.9,1.7 l 0,6.9 c 0.8,0.4 1.5,0.5 2.1,0.5 0.6,0 1.2,-0.2 1.6,-0.5 1,-0.7 1.5,-1.9 1.5,-3.7 0,-1.9 -0.4,-3.4 -1.2,-4.3 -0.8,-1 -2.1,-1.9 -4.1,-2.6 -1.3,-0.4 -2.5,-0.8 -3.6,-1.1 -1.1,-0.3 -2,-0.5 -2.9,-0.7 l 0,12.2 0,0 0,2.7 0,0 0,1.7 0,0 0,2.5 0,0 0,1.5 4.7,1.5 0,-3.6 0,0 0,-0.7 z"
           inkscape:connector-curvature="0"
           style="fill:#f2f2f2" /><path
           id="path319"
           d="m 496,464.7 -1.7,0.6 -0.9,0.4 -1.6,0.3 -1.5,-0.2 c -0.3,-0.2 -0.4,-0.4 -0.2,-0.6 0.1,-0.1 0.2,-0.1 0.3,-0.2 0.1,-0.1 0.3,-0.1 0.4,-0.2 l 1.1,-0.4 4.1,-1.5 0,-2.7 -1.7,0.5 -5.5,2 -1,0.4 c -1.5,0.6 -2.2,1.2 -2.2,1.8 0.1,0.8 1,1.5 2.7,1.9 0.7,0.2 1.4,0.3 2.1,0.4 0.7,0.1 1.4,0.1 2.2,0.1 1,0 2.1,-0.1 3.3,-0.3 l 0,-2.3 0.1,0 z"
           inkscape:connector-curvature="0"
           style="fill:#f2f2f2" /><path
           id="path321"
           d="m 511.8,462.4 c -0.9,-0.3 -1.7,-0.5 -2.5,-0.6 -0.8,-0.1 -1.7,-0.2 -2.5,-0.1 -0.9,0 -1.9,0.2 -2.8,0.3 -0.8,0.2 -1.7,0.4 -2.6,0.8 l 0,2.8 3.9,-1.4 1.6,-0.5 1.1,-0.3 1.4,0 c 0.3,0.1 0.6,0.2 0.7,0.4 0,0.2 -0.2,0.4 -0.8,0.6 l -1.4,0.5 -6.5,2.4 0,2.7 3.5,-1.3 6.4,-2.3 0.7,-0.4 c 1.5,-0.5 2.2,-1.2 2.2,-1.9 0,-0.6 -0.8,-1.2 -2.4,-1.7 z"
           inkscape:connector-curvature="0"
           style="fill:#f2f2f2" /></g></g><g
       id="g341"><g
         id="g343"><g
           id="g345"><g
             id="g347"><path
               id="path349"
               d="m 794.2,187.9 c 0,0 -32.7,-3.2 -50.6,-3.2 -17.9,0 -48.4,2.4 -48.4,2.4 0,0 3.1,-44.7 4.8,-52 1.6,-7.3 7.7,-21.3 16.9,-27.9 9.2,-6.6 11.9,-10.1 22.7,-10.1 10.8,0 25.4,6.4 34.6,21.4 9.3,15 20,69.4 20,69.4 z"
               inkscape:connector-curvature="0"
               style="fill:#121212" /><path
               id="path351"
               d="m 695.7,180.3 c 0,0 26.1,-4.4 49,-4.4 22.8,0 47.9,4.4 47.9,4.4 1,4.7 1.6,7.6 1.6,7.6 0,0 -32.7,-3.2 -50.6,-3.2 -17.9,0 -48.4,2.4 -48.4,2.4 0,0 0.2,-2.7 0.5,-6.8 z"
               inkscape:connector-curvature="0"
               style="fill:#0a0a0a" /></g><g
             id="g353"
             style="opacity:0.07999998"><g
               id="g355"><path
                 id="path357"
                 d="m 745.7,162.8 c -2.1,1.7 -3.2,2.6 -3.2,2.6 -1.2,1.2 -1.9,2.7 -2,4.5 l 9.8,0 0,-2.6 -6.3,0 c 0.3,-0.5 1,-1.2 2.1,-1.9 1.4,-0.9 2.3,-1.6 2.7,-2.1 0.9,-1 1.3,-2.1 1.3,-3.3 0,-1.4 -0.5,-2.5 -1.4,-3.3 -0.9,-0.8 -2.1,-1.2 -3.5,-1.2 -3.1,0 -4.7,1.7 -4.7,5 l 2.7,0 c 0,-1.8 0.7,-2.7 2.1,-2.7 1.3,0 2,0.7 2,2.1 0.2,1.1 -0.4,2 -1.6,2.9 z"
                 inkscape:connector-curvature="0"
                 style="fill:#ffffff" /></g><path
               id="path359"
               d="m 728.1,164.3 3,0 c 1.5,0 2.3,0.6 2.4,1.9 0.1,1.2 0.2,2.5 0.3,3.8 l 3.3,0 0,-0.4 c -0.5,-0.2 -0.7,-0.7 -0.7,-1.5 0,-0.2 0,-0.4 0.1,-0.8 l 0,-0.7 c 0,-1.7 -0.6,-2.9 -1.8,-3.5 1.4,-0.5 2.2,-1.6 2.2,-3.4 0,-1.3 -0.4,-2.3 -1.3,-3 -0.8,-0.7 -1.9,-1 -3.2,-1 l -7.3,0 0,14.3 3,0 0,-5.7 z m 0,-6.2 3.7,0 c 1.4,0 2.1,0.6 2.1,1.9 0,1.3 -0.8,1.9 -2.3,1.9 l -3.5,0 0,-3.8 z"
               inkscape:connector-curvature="0"
               style="fill:#ffffff" /></g></g></g><g
         id="g361"><g
           id="g363"><g
             id="g365"><path
               id="path367"
               d="m 205.8,187.9 c 0,0 32.7,-3.2 50.6,-3.2 17.9,0 48.3,2.4 48.3,2.4 0,0 -3.1,-44.7 -4.8,-52 -1.6,-7.3 -7.7,-21.3 -16.9,-27.9 -9.1,-6.7 -11.8,-10.1 -22.6,-10.1 -10.8,0 -25.4,6.4 -34.6,21.4 -9.2,15 -20,69.4 -20,69.4 z"
               inkscape:connector-curvature="0"
               style="fill:#121212" /><path
               id="path369"
               d="m 304.3,180.3 c 0,0 -26.1,-4.4 -49,-4.4 -22.8,0 -47.9,4.4 -47.9,4.4 -1,4.7 -1.6,7.6 -1.6,7.6 0,0 32.7,-3.2 50.6,-3.2 17.9,0 48.3,2.4 48.3,2.4 0,0 -0.1,-2.7 -0.4,-6.8 z"
               inkscape:connector-curvature="0"
               style="fill:#0a0a0a" /></g><g
             id="g371"
             style="opacity:0.07999998"><g
               id="g373"><path
                 id="path375"
                 d="m 270.3,162.8 c -2.1,1.7 -3.2,2.6 -3.2,2.6 -1.2,1.2 -1.9,2.7 -2,4.5 l 9.8,0 0,-2.6 -6.2,0 c 0.3,-0.5 1,-1.2 2.1,-1.9 1.4,-0.9 2.3,-1.6 2.7,-2.1 0.9,-1 1.3,-2.1 1.3,-3.3 0,-1.4 -0.5,-2.5 -1.4,-3.3 -0.9,-0.8 -2.1,-1.2 -3.5,-1.2 -3.1,0 -4.7,1.7 -4.7,5 l 2.7,0 c 0,-1.8 0.7,-2.7 2.1,-2.7 1.3,0 2,0.7 2,2.1 0.1,1.1 -0.5,2 -1.7,2.9 z"
                 inkscape:connector-curvature="0"
                 style="fill:#ffffff" /></g><polygon
               id="polygon377"
               points="251.7,155.6 251.7,169.9 261.8,169.9 261.8,167.3 254.8,167.3 254.8,155.6 "
               style="fill:#ffffff" /></g></g></g></g><g
       id="g379"><g
         id="g381"><path
           id="path383"
           d="m 644.6,231.7 c 0,2.1 -1.5,3.8 -4.1,3.8 -2.6,0 -4.1,-1.7 -4.1,-3.8 0,-2 1.5,-3.8 4.1,-3.8 2.6,0 4.1,1.7 4.1,3.8 z m -6.7,0 c 0,1.4 0.8,2.7 2.6,2.7 1.8,0 2.6,-1.4 2.6,-2.7 0,-1.4 -0.8,-2.7 -2.6,-2.7 -1.8,0 -2.6,1.3 -2.6,2.7 z"
           inkscape:connector-curvature="0"
           style="fill:#cccccc" /><path
           id="path385"
           d="m 645.9,228.1 3.8,0 c 2.4,0 2.9,1.3 2.9,2.2 0,0.9 -0.5,2.2 -2.9,2.2 l -2.3,0 0,2.8 -1.5,0 0,-7.2 z m 1.5,3.4 2.2,0 c 0.7,0 1.5,-0.3 1.5,-1.2 0,-0.9 -0.7,-1.2 -1.5,-1.2 l -2.2,0 0,2.4 z"
           inkscape:connector-curvature="0"
           style="fill:#cccccc" /><path
           id="path387"
           d="m 653.1,228.1 6.9,0 0,1.1 -2.7,0 0,6.1 -1.5,0 0,-6.2 -2.7,0 0,-1 z"
           inkscape:connector-curvature="0"
           style="fill:#cccccc" /><path
           id="path389"
           d="m 661.1,228.1 1.5,0 0,7.2 -1.5,0 0,-7.2 z"
           inkscape:connector-curvature="0"
           style="fill:#cccccc" /><path
           id="path391"
           d="m 672.1,231.7 c 0,2.1 -1.5,3.8 -4.1,3.8 -2.6,0 -4.1,-1.7 -4.1,-3.8 0,-2 1.5,-3.8 4.1,-3.8 2.6,0 4.1,1.7 4.1,3.8 z m -6.7,0 c 0,1.4 0.8,2.7 2.6,2.7 1.8,0 2.6,-1.4 2.6,-2.7 0,-1.4 -0.8,-2.7 -2.6,-2.7 -1.8,0 -2.6,1.3 -2.6,2.7 z"
           inkscape:connector-curvature="0"
           style="fill:#cccccc" /><path
           id="path393"
           d="m 673.5,228.1 1.6,0 3.9,5.3 0,0 0,-5.3 1.4,0 0,7.2 -1.6,0 -3.9,-5.3 0,0 0,5.3 -1.4,0 0,-7.2 z"
           inkscape:connector-curvature="0"
           style="fill:#cccccc" /><path
           id="path395"
           d="m 683.2,232.9 c 0,1.1 1,1.5 2.2,1.5 1.3,0 1.8,-0.6 1.8,-1.1 0,-0.6 -0.4,-0.8 -0.7,-0.9 -0.6,-0.2 -1.4,-0.3 -2.6,-0.6 -1.5,-0.3 -1.9,-1.1 -1.9,-1.8 0,-1.5 1.6,-2.1 3.1,-2.1 1.8,0 3.3,0.8 3.3,2.3 l -1.5,0 c -0.1,-0.9 -0.8,-1.3 -1.8,-1.3 -0.7,0 -1.6,0.2 -1.6,0.9 0,0.5 0.4,0.8 1,0.9 0.1,0 2,0.4 2.5,0.6 1.1,0.3 1.7,1.1 1.7,1.8 0,1.6 -1.7,2.3 -3.4,2.3 -2,0 -3.5,-0.8 -3.6,-2.6 l 1.5,0 0,0.1 z"
           inkscape:connector-curvature="0"
           style="fill:#cccccc" /></g><g
         id="g397"><path
           id="path399"
           d="m 319.2,232.9 c 0,1.1 1,1.5 2.2,1.5 1.3,0 1.8,-0.6 1.8,-1.1 0,-0.6 -0.4,-0.8 -0.7,-0.9 -0.6,-0.2 -1.4,-0.3 -2.6,-0.6 -1.5,-0.3 -1.9,-1.1 -1.9,-1.8 0,-1.5 1.6,-2.1 3.1,-2.1 1.8,0 3.3,0.8 3.3,2.3 l -1.5,0 c -0.1,-0.9 -0.8,-1.3 -1.8,-1.3 -0.7,0 -1.6,0.2 -1.6,0.9 0,0.5 0.4,0.8 1,0.9 0.1,0 2,0.4 2.5,0.6 1.1,0.3 1.7,1.1 1.7,1.8 0,1.6 -1.7,2.3 -3.4,2.3 -2,0 -3.5,-0.8 -3.6,-2.6 l 1.5,0 0,0.1 z"
           inkscape:connector-curvature="0"
           style="fill:#cccccc" /><path
           id="path401"
           d="m 325.9,228.1 1.5,0 0,2.9 3.9,0 0,-2.9 1.5,0 0,7.2 -1.5,0 0,-3.2 -3.9,0 0,3.2 -1.5,0 0,-7.2 z"
           inkscape:connector-curvature="0"
           style="fill:#cccccc" /><path
           id="path403"
           d="m 336.9,228.1 1.6,0 3.3,7.2 -1.6,0 -0.8,-1.9 -3.4,0 -0.8,1.9 -1.5,0 3.2,-7.2 z m -0.5,4.3 2.6,0 -1.3,-3.1 0,0 -1.3,3.1 z"
           inkscape:connector-curvature="0"
           style="fill:#cccccc" /><path
           id="path405"
           d="m 342.6,228.1 4.1,0 c 1.9,0 2.8,0.7 2.8,1.9 0,1.4 -1.1,1.7 -1.4,1.8 l 0,0 c 0.5,0.1 1.3,0.4 1.3,1.5 0,0.8 0.1,1.6 0.5,1.9 l -1.6,0 c -0.2,-0.3 -0.2,-0.7 -0.2,-1.1 0,-1.3 -0.3,-1.9 -1.7,-1.9 l -2.2,0 0,3 -1.5,0 0,-7.1 -0.1,0 z m 1.5,3.2 2.5,0 c 1,0 1.5,-0.4 1.5,-1.1 0,-0.9 -0.7,-1.1 -1.5,-1.1 l -2.4,0 0,2.2 -0.1,0 z"
           inkscape:connector-curvature="0"
           style="fill:#cccccc" /><path
           id="path407"
           d="m 351.1,228.1 6.2,0 0,1.1 -4.7,0 0,1.9 4.3,0 0,1 -4.3,0 0,2.1 4.7,0 0,1.1 -6.2,0 0,-7.2 0,0 z"
           inkscape:connector-curvature="0"
           style="fill:#cccccc" /></g></g></g></svg>